<svg width="669" height="477" viewBox="0 0 669 477" fill="none" xmlns="http://www.w3.org/2000/svg">
<path d="M41.5777 476C19.4863 476 1.5777 458.091 1.5777 436L1.5777 41.5587C1.5777 19.4673 19.4863 1.55865 41.5777 1.55865L628 1.55865C650.091 1.55865 668 19.4673 668 41.5586V436C668 458.091 650.091 476 628 476L41.5777 476Z" fill="url(#paint0_angular_71_130)"/>
<path d="M41.1021 473.506C20.6675 473.506 4.10205 456.941 4.10205 436.506L4.10205 41.0522C4.10205 20.6177 20.6675 4.05226 41.1021 4.05226L628.476 4.05226C648.91 4.05226 665.476 20.6177 665.476 41.0523V436.506C665.476 456.941 648.91 473.506 628.476 473.506L41.1021 473.506Z" fill="#0B0B0B"/>
<path d="M2.60205 41.0522L2.60205 436.506C2.60205 457.769 19.8391 475.006 41.1021 475.006L628.476 475.006C649.739 475.006 666.976 457.769 666.976 436.506V41.0522C666.976 19.7893 649.739 2.55225 628.476 2.55225L41.1021 2.55225C19.8391 2.55225 2.60205 19.7893 2.60205 41.0522Z" stroke="#475B64" stroke-opacity="0.4" stroke-width="3"/>
<rect x="24.1899" y="454.933" width="430.748" height="623.407" rx="32" transform="rotate(-90 24.1899 454.933)" fill="#D9D9D9" stroke="#121212" stroke-width="4"/>
<g filter="url(#filter0_i_71_130)">
<ellipse cx="14.3571" cy="238.623" rx="3.89653" ry="3.94426" transform="rotate(-90 14.3571 238.623)" fill="#1A1D22" fill-opacity="0.5"/>
</g>
<ellipse cx="14.5149" cy="238.468" rx="2.49378" ry="2.52433" transform="rotate(-90 14.5149 238.468)" fill="url(#paint1_angular_71_130)"/>
<ellipse cx="14.5149" cy="238.468" rx="2.49378" ry="2.52433" transform="rotate(-90 14.5149 238.468)" fill="url(#paint2_radial_71_130)"/>
<path d="M85.5116 1.55859V1.55859C85.5116 0.697789 86.2094 -3.0458e-05 87.0702 -3.0458e-05L110.143 -3.0458e-05C111.004 -3.0458e-05 111.701 0.697789 111.701 1.55859V1.55859L85.5116 1.55859Z" fill="url(#paint3_linear_71_130)"/>
<path d="M52.0643 1.55859V1.55859C52.0643 0.697789 52.7621 -3.0458e-05 53.6229 -3.0458e-05L78.5888 -3.0458e-05C79.4496 -3.0458e-05 80.1474 0.697789 80.1474 1.55859V1.55859L52.0643 1.55859Z" fill="url(#paint4_linear_71_130)"/>
<g filter="url(#filter1_ii_71_130)">
<path d="M1.5777 67.9556C0.706362 67.9556 0 67.2492 0 66.3779L0 36.8024C0 35.9311 0.706362 35.2247 1.5777 35.2247V35.2247L1.5777 67.9556V67.9556Z" fill="url(#paint5_linear_71_130)"/>
</g>
<defs>
<filter id="filter0_i_71_130" x="10.4128" y="234.727" width="9.88855" height="9.79297" filterUnits="userSpaceOnUse" color-interpolation-filters="sRGB">
<feFlood flood-opacity="0" result="BackgroundImageFix"/>
<feBlend mode="normal" in="SourceGraphic" in2="BackgroundImageFix" result="shape"/>
<feColorMatrix in="SourceAlpha" type="matrix" values="0 0 0 0 0 0 0 0 0 0 0 0 0 0 0 0 0 0 127 0" result="hardAlpha"/>
<feOffset dx="2" dy="2"/>
<feGaussianBlur stdDeviation="1.25"/>
<feComposite in2="hardAlpha" operator="arithmetic" k2="-1" k3="1"/>
<feColorMatrix type="matrix" values="0 0 0 0 0.0431373 0 0 0 0 0.0431373 0 0 0 0 0.0431373 0 0 0 1 0"/>
<feBlend mode="normal" in2="shape" result="effect1_innerShadow_71_130"/>
</filter>
<filter id="filter1_ii_71_130" x="0" y="35.2246" width="1.5777" height="32.731" filterUnits="userSpaceOnUse" color-interpolation-filters="sRGB">
<feFlood flood-opacity="0" result="BackgroundImageFix"/>
<feBlend mode="normal" in="SourceGraphic" in2="BackgroundImageFix" result="shape"/>
<feColorMatrix in="SourceAlpha" type="matrix" values="0 0 0 0 0 0 0 0 0 0 0 0 0 0 0 0 0 0 127 0" result="hardAlpha"/>
<feOffset dy="2"/>
<feComposite in2="hardAlpha" operator="arithmetic" k2="-1" k3="1"/>
<feColorMatrix type="matrix" values="0 0 0 0 0.603922 0 0 0 0 0.67451 0 0 0 0 0.733333 0 0 0 0.5 0"/>
<feBlend mode="normal" in2="shape" result="effect1_innerShadow_71_130"/>
<feColorMatrix in="SourceAlpha" type="matrix" values="0 0 0 0 0 0 0 0 0 0 0 0 0 0 0 0 0 0 127 0" result="hardAlpha"/>
<feOffset dy="1"/>
<feComposite in2="hardAlpha" operator="arithmetic" k2="-1" k3="1"/>
<feColorMatrix type="matrix" values="0 0 0 0 0.709804 0 0 0 0 0.74902 0 0 0 0 0.780392 0 0 0 1 0"/>
<feBlend mode="normal" in2="effect1_innerShadow_71_130" result="effect2_innerShadow_71_130"/>
</filter>
<radialGradient id="paint0_angular_71_130" cx="0" cy="0" r="1" gradientUnits="userSpaceOnUse" gradientTransform="translate(334.789 238.779) scale(333.211 237.221)">
<stop stop-color="#C4C5C5"/>
<stop offset="0.0982781" stop-color="#838485"/>
<stop offset="0.127907" stop-color="#B3B4B5"/>
<stop offset="0.251954" stop-color="#B9B9BA"/>
<stop offset="0.370813" stop-color="#BEBFBF"/>
<stop offset="0.409623" stop-color="#C8C9CA"/>
<stop offset="0.500156" stop-color="#E0E0E1"/>
<stop offset="0.624414" stop-color="#BBBCBC"/>
<stop offset="0.75138" stop-color="#939495"/>
<stop offset="0.884339" stop-color="#828384"/>
<stop offset="1" stop-color="#C4C5C6"/>
</radialGradient>
<radialGradient id="paint1_angular_71_130" cx="0" cy="0" r="1" gradientUnits="userSpaceOnUse" gradientTransform="translate(14.5149 238.468) rotate(90) scale(2.52433 2.49378)">
<stop offset="0.00395168"/>
<stop offset="0.0907548" stop-color="#101215"/>
<stop offset="0.159421" stop-color="#75899E"/>
<stop offset="0.249667" stop-color="#1D4672"/>
<stop offset="0.326618" stop-color="#252F8B"/>
<stop offset="0.364065" stop-color="#2C18A3" stop-opacity="0.66"/>
<stop offset="0.402347" stop-color="#0A0625"/>
<stop offset="0.513289"/>
<stop offset="0.649389" stop-color="#0D103D"/>
<stop offset="0.816604" stop-color="#0B1B34"/>
<stop offset="0.895453" stop-color="#345D7B"/>
</radialGradient>
<radialGradient id="paint2_radial_71_130" cx="0" cy="0" r="1" gradientUnits="userSpaceOnUse" gradientTransform="translate(14.5149 238.468) rotate(90) scale(2.52433 2.49378)">
<stop offset="0.21875"/>
<stop offset="0.458333" stop-opacity="0"/>
<stop offset="0.791667" stop-opacity="0"/>
<stop offset="1"/>
</radialGradient>
<linearGradient id="paint3_linear_71_130" x1="85.5116" y1="0.779282" x2="111.701" y2="0.779282" gradientUnits="userSpaceOnUse">
<stop stop-color="#A6A7A8"/>
<stop offset="0.101279" stop-color="#CDCED0"/>
<stop offset="0.494792" stop-color="#E4E4E5"/>
<stop offset="0.912797" stop-color="#CDCED0"/>
<stop offset="1" stop-color="#A6A7A8"/>
</linearGradient>
<linearGradient id="paint4_linear_71_130" x1="52.0643" y1="0.779282" x2="80.1474" y2="0.779282" gradientUnits="userSpaceOnUse">
<stop stop-color="#A6A7A8"/>
<stop offset="0.101279" stop-color="#CDCED0"/>
<stop offset="0.494792" stop-color="#E4E4E5"/>
<stop offset="0.912797" stop-color="#CDCED0"/>
<stop offset="1" stop-color="#A6A7A8"/>
</linearGradient>
<linearGradient id="paint5_linear_71_130" x1="-1.26223" y1="67.0649" x2="-1.10509" y2="35.2239" gradientUnits="userSpaceOnUse">
<stop stop-color="#A6A7A8"/>
<stop offset="0.140625" stop-color="#CDCED0"/>
<stop offset="0.463542" stop-color="#E4E4E6"/>
<stop offset="0.875" stop-color="#CDCED0"/>
<stop offset="1" stop-color="#A6A7A8"/>
</linearGradient>
</defs>
</svg>
