<svg width="1440" height="1062" viewBox="0 0 1440 1062" fill="none" xmlns="http://www.w3.org/2000/svg">
<path d="M-72.5756 19.4503C-72.5756 19.4503 79.9246 57.4503 169.924 107.95C259.924 158.45 344.425 249.95 379.924 313.45C415.424 376.95 427.925 448.451 437.425 524.451C446.924 600.45 442.424 734.45 415.924 794.45C389.424 854.45 340.425 927.95 198.925 922.45C57.4241 916.95 37.9244 809.95 41.4242 759.45C44.9239 708.951 54.9239 644.45 190.924 575.45C326.925 506.451 478.924 524.451 556.924 535.45C634.924 546.45 683.424 556.139 762.424 585.95C841.424 615.762 873.425 641.978 924.925 689.95C976.425 737.923 1007.92 834.451 1072.92 841.951C1137.92 849.451 1177.92 805.45 1247.42 797.951C1316.92 790.451 1355.92 830.45 1372.92 849.451C1389.92 868.451 1544.5 1076 1544.5 1076" stroke="url(#paint0_linear_31_37)" stroke-width="40" stroke-linejoin="round"/>
<defs>
<linearGradient id="paint0_linear_31_37" x1="-69.5" y1="11" x2="1516" y2="1027.5" gradientUnits="userSpaceOnUse">
<stop offset="0.22856" stop-color="#F3521C"/>
<stop offset="0.589465" stop-color="#FC906C"/>
<stop offset="0.973705" stop-color="#FFB79F"/>
</linearGradient>
</defs>
</svg>
