<svg width="393" height="476" viewBox="0 0 393 476" fill="none" xmlns="http://www.w3.org/2000/svg">
<path d="M-16.4676 20.109C-16.4676 20.109 47.5539 36.0619 85.3369 57.2624C123.12 78.4629 158.594 116.876 173.497 143.534C188.401 170.192 193.649 200.209 197.637 232.114C201.625 264.02 199.736 320.275 188.611 345.464C177.486 370.652 156.915 401.509 97.5115 399.2C38.1079 396.891 29.9216 351.971 31.3909 330.77C32.8601 309.57 37.0583 282.492 94.1529 253.525C151.248 224.558 215.059 232.114 247.804 236.732C280.55 241.35 300.911 245.418 334.076 257.933C367.241 270.448 380.675 281.454 402.295 301.593C423.916 321.733 437.14 362.256 464.428 365.405C491.716 368.553 508.508 350.082 537.685 346.933C566.862 343.785 583.235 360.577 590.371 368.553C597.508 376.53 662.401 463.662 662.401 463.662" stroke="url(#paint0_linear_47_2)" stroke-width="40" stroke-linejoin="round"/>
<defs>
<linearGradient id="paint0_linear_47_2" x1="-15.1765" y1="16.5614" x2="650.436" y2="443.301" gradientUnits="userSpaceOnUse">
<stop offset="0.22856" stop-color="#F3521C"/>
<stop offset="0.589465" stop-color="#FC906C"/>
<stop offset="0.973705" stop-color="#FFB79F"/>
</linearGradient>
</defs>
</svg>
